<?xml version="1.0" encoding="utf-8"?>
<!-- Generator: Adobe Illustrator 26.0.1, SVG Export Plug-In . SVG Version: 6.00 Build 0)  -->
<svg version="1.1" xmlns="http://www.w3.org/2000/svg" xmlns:xlink="http://www.w3.org/1999/xlink" x="0px" y="0px"
	 viewBox="0 0 477.63 137.91" style="enable-background:new 0 0 477.63 137.91;" xml:space="preserve">
<style type="text/css">
	.st0{display:none;}
	.st1{display:inline;fill:#E6E7E8;}
	.st2{display:inline;}
	.st3{fill:#001D4F;}
	.st4{font-family:'Poppins-Medium';}
	.st5{font-size:23.9681px;}
	.st6{letter-spacing:11;}
</style>
<g id="Layer_1" class="st0">
	<rect x="-261.18" y="42.2" class="st1" width="500" height="526.75"/>
	<rect x="238.82" y="42.2" class="st2" width="500" height="526.75"/>
</g>
<g id="Layer_2">
	<g>
		<g>
			<g>
				<g>
					<g>
						<path class="st3" d="M197.5,35.17c4.64,0.99,8.12,2.5,10.43,4.53c2.31,2.03,3.47,4.59,3.47,7.69c0,2.58-0.85,4.9-2.54,6.96
							c-1.69,2.06-3.77,3.45-6.23,4.15c-2.46,0.71-6.03,1.06-10.72,1.06c-1.14,0-2.94-0.06-5.38-0.18c-2.02-0.1-3.6-0.15-4.74-0.15
							c-1.53,0-3.58,0.1-6.16,0.3c-1.05,0.09-1.79,0.13-2.22,0.13c-0.87,0-1.31-0.33-1.31-0.98c0-0.49,0.35-0.78,1.04-0.87
							c1.41-0.18,2.44-0.42,3.08-0.72c0.64-0.3,1.16-0.81,1.55-1.53c0.39-0.72,0.59-1.88,0.59-3.5l0.27-15.7
							c0-4.89-0.06-8.79-0.17-11.72c-0.11-2.93-0.31-4.81-0.59-5.67c-0.28-0.85-0.67-1.45-1.18-1.78c-0.5-0.34-1.26-0.54-2.27-0.61
							c-0.9-0.04-1.48-0.15-1.73-0.3c-0.26-0.16-0.39-0.41-0.39-0.77c0-0.47,0.26-0.76,0.79-0.88c0.53-0.11,2.01-0.17,4.46-0.17
							c4.49,0,8.68-0.16,12.59-0.47c2.31-0.18,4.16-0.27,5.55-0.27c4.13,0,7.43,0.91,9.89,2.73c2.47,1.82,3.7,4.27,3.7,7.33
							C209.27,29.08,205.35,32.87,197.5,35.17z M188.24,34.66c7.72,0,11.58-3.32,11.58-9.96c0-2.93-0.68-5.11-2.05-6.55
							c-1.37-1.44-2.96-2.16-4.78-2.16c-1.3,0-2.88,0.31-4.74,0.94c-0.18,2.26-0.27,4.62-0.27,7.07
							C187.97,26.08,188.06,29.63,188.24,34.66z M188.24,37.28c-0.18,4.73-0.27,8.67-0.27,11.82c0,4.17,0.17,6.55,0.5,7.16
							c0.34,0.6,1.4,0.91,3.2,0.91c3.23,0,5.65-0.86,7.25-2.59c1.6-1.72,2.41-4.1,2.41-7.12c0-3.02-0.83-5.5-2.49-7.44
							c-1.66-1.94-4.18-2.91-7.57-2.91C190.53,37.12,189.52,37.17,188.24,37.28z"/>
					</g>
				</g>
				<g>
					<g>
						<path class="st3" d="M232.96,56.03c-1.39,1.32-2.79,2.32-4.21,2.98c-1.41,0.66-2.84,0.99-4.27,0.99
							c-2.29,0-4.05-0.69-5.3-2.07c-1.25-1.38-1.87-3.06-1.87-5.04c0-1.53,0.38-2.89,1.12-4.1c0.75-1.2,1.68-2.13,2.79-2.8
							c1.11-0.66,2.94-1.46,5.49-2.38c2.15-0.76,3.59-1.36,4.32-1.8c0.73-0.44,1.34-1.08,1.83-1.92c0.49-0.84,0.74-1.93,0.74-3.27
							c0-1.47-0.37-2.65-1.11-3.53s-1.75-1.32-3.05-1.32c-1.12,0-1.91,0.28-2.38,0.84c-0.47,0.58-0.83,1.51-1.07,2.78
							c-0.52,2.55-1.9,3.82-4.14,3.82c-0.92,0-1.71-0.27-2.36-0.81c-0.65-0.54-0.98-1.31-0.98-2.32c0-2.15,1.17-3.76,3.52-4.83
							c2.34-1.07,5.14-1.6,8.4-1.6c2.8,0,5.09,0.43,6.85,1.28c1.76,0.85,2.89,1.84,3.38,2.96c0.49,1.12,0.74,2.87,0.74,5.25
							l-0.07,7.97c0,4.2,0.14,6.89,0.42,8.08c0.28,1.19,0.88,1.78,1.8,1.78c0.13,0,0.31-0.01,0.54-0.03
							c0.45-0.04,0.75-0.07,0.91-0.07c0.92,0,1.38,0.26,1.38,0.77c0,0.34-0.19,0.62-0.57,0.86c-0.38,0.24-1.53,0.53-3.45,0.89
							c-1.92,0.36-3.65,0.54-5.2,0.54c-1.55,0-2.61-0.29-3.18-0.88C233.42,58.46,233.08,57.45,232.96,56.03z M233.4,42.53
							c-0.54,0.65-1.83,1.52-3.87,2.6c-1.86,0.99-3.11,1.87-3.74,2.63c-0.63,0.79-0.94,1.92-0.94,3.41c0,1.57,0.33,2.77,0.99,3.59
							c0.66,0.82,1.47,1.23,2.44,1.23c1.3,0,2.51-0.6,3.63-1.8c1.12-1.2,1.68-3.32,1.68-6.36C233.6,46.89,233.54,45.12,233.4,42.53z
							"/>
					</g>
				</g>
				<g>
					<g>
						<path class="st3" d="M260.73,36.44c1.12-2.27,2.41-3.96,3.87-5.08c1.46-1.12,3.08-1.68,4.88-1.68c1.7,0,3.07,0.49,4.09,1.48
							c1.02,0.99,1.53,2.22,1.53,3.7c0,1.17-0.36,2.16-1.09,2.98c-0.73,0.82-1.62,1.23-2.68,1.23c-0.79,0-1.44-0.2-1.95-0.61
							s-1.07-1.12-1.65-2.15c-0.81-1.48-1.51-2.22-2.12-2.22c-0.83,0-1.77,0.84-2.83,2.52c-1.05,1.68-1.58,4.94-1.58,9.78
							c0,6.12,0.21,9.52,0.62,10.2c0.41,0.68,1.33,1.02,2.74,1.02c1.23,0,1.85,0.34,1.85,1.01c0,0.63-0.61,0.94-1.82,0.94
							c-0.67,0-1.65-0.06-2.93-0.18c-1.17-0.1-2.27-0.15-3.3-0.15c-2.22,0-4.42,0.08-6.6,0.24c-0.92,0.07-1.46,0.1-1.62,0.1
							c-0.94,0-1.41-0.35-1.41-1.06c0-0.62,0.55-0.95,1.65-0.99c1.08-0.04,1.83-0.3,2.25-0.76c0.43-0.46,0.64-1.46,0.64-3.01
							l0.13-8.4c0-1.7-0.07-3.82-0.2-6.35c-0.13-2.53-0.26-4.04-0.37-4.52c-0.11-0.48-0.4-0.91-0.86-1.29
							c-0.46-0.38-1.08-0.61-1.87-0.67c-0.81-0.09-1.32-0.2-1.53-0.32c-0.21-0.12-0.32-0.38-0.32-0.76c0-0.61,0.56-0.92,1.68-0.94
							c2.06-0.02,5.57-0.29,10.53-0.81L260.73,36.44z"/>
					</g>
				</g>
				<g>
					<g>
						<path class="st3" d="M287.81,36.44c1.12-2.27,2.41-3.96,3.87-5.08c1.46-1.12,3.08-1.68,4.88-1.68c1.7,0,3.07,0.49,4.09,1.48
							c1.02,0.99,1.53,2.22,1.53,3.7c0,1.17-0.36,2.16-1.09,2.98c-0.73,0.82-1.62,1.23-2.68,1.23c-0.79,0-1.44-0.2-1.95-0.61
							c-0.52-0.4-1.07-1.12-1.65-2.15c-0.81-1.48-1.51-2.22-2.12-2.22c-0.83,0-1.77,0.84-2.83,2.52c-1.05,1.68-1.58,4.94-1.58,9.78
							c0,6.12,0.21,9.52,0.62,10.2c0.41,0.68,1.33,1.02,2.74,1.02c1.23,0,1.85,0.34,1.85,1.01c0,0.63-0.61,0.94-1.82,0.94
							c-0.67,0-1.65-0.06-2.93-0.18c-1.17-0.1-2.27-0.15-3.3-0.15c-2.22,0-4.42,0.08-6.6,0.24c-0.92,0.07-1.46,0.1-1.62,0.1
							c-0.94,0-1.41-0.35-1.41-1.06c0-0.62,0.55-0.95,1.65-0.99c1.08-0.04,1.83-0.3,2.25-0.76c0.43-0.46,0.64-1.46,0.64-3.01
							l0.13-8.4c0-1.7-0.07-3.82-0.2-6.35c-0.13-2.53-0.26-4.04-0.37-4.52c-0.11-0.48-0.4-0.91-0.86-1.29
							c-0.46-0.38-1.08-0.61-1.87-0.67c-0.81-0.09-1.32-0.2-1.53-0.32c-0.21-0.12-0.32-0.38-0.32-0.76c0-0.61,0.56-0.92,1.68-0.94
							c2.06-0.02,5.57-0.29,10.53-0.81L287.81,36.44z"/>
					</g>
				</g>
				<g>
					<g>
						<path class="st3" d="M317.02,29.65c0.09,3.14,0.13,8.74,0.13,16.79l-0.1,7.23c0,1.46,0.24,2.43,0.72,2.93
							c0.48,0.49,1.27,0.82,2.37,0.98c1.26,0.16,1.88,0.52,1.88,1.08c0,0.61-0.49,0.91-1.48,0.91c-0.47,0-1.29-0.03-2.46-0.1
							c-2.47-0.16-4.91-0.24-7.34-0.24c-1.19,0-2.4,0.06-3.63,0.19c-0.74,0.1-1.25,0.15-1.51,0.15c-0.99,0-1.48-0.3-1.48-0.91
							c0-0.58,0.65-0.93,1.95-1.04c1.73-0.16,2.69-0.73,2.89-1.73c0.2-1,0.3-3.02,0.3-6.07c0-3.95-0.06-7.58-0.19-10.89
							c-0.12-3.31-0.35-5.2-0.69-5.67c-0.34-0.47-1.21-0.79-2.62-0.94c-1.1-0.11-1.65-0.44-1.65-0.98s0.56-0.85,1.68-0.94l0.71-0.07
							L317.02,29.65z M316.55,18.27c0,1.32-0.48,2.46-1.43,3.42c-0.95,0.95-2.09,1.43-3.42,1.43c-1.35,0-2.49-0.48-3.43-1.43
							c-0.94-0.95-1.41-2.09-1.41-3.42c0-1.35,0.47-2.49,1.41-3.43c0.94-0.94,2.09-1.41,3.43-1.41c1.32,0,2.46,0.47,3.42,1.41
							C316.08,15.78,316.55,16.93,316.55,18.27z"/>
					</g>
				</g>
				<g>
					<g>
						<path class="st3" d="M349.29,49.84c0,1.62-0.42,3.19-1.26,4.71c-0.84,1.53-2.11,2.79-3.8,3.79c-1.69,1-3.67,1.5-5.94,1.5
							c-2.83,0-5.22-0.58-7.17-1.75c-0.85-0.49-1.4-0.74-1.65-0.74c-0.29,0-0.52,0.19-0.67,0.56c-0.36,0.88-0.79,1.32-1.28,1.32
							c-0.29,0-0.5-0.11-0.62-0.34c-0.12-0.22-0.22-1.22-0.3-3c-0.08-1.78-0.12-3.89-0.12-6.32c0-0.94,0.27-1.41,0.81-1.41
							c0.54,0,1.11,0.7,1.72,2.09c2.15,5.05,5.09,7.57,8.82,7.57c1.3,0,2.41-0.34,3.31-1.01c0.91-0.67,1.36-1.65,1.36-2.93
							c0-1.08-0.42-2-1.26-2.78c-0.84-0.77-2.45-1.74-4.83-2.91c-3.59-1.77-6.05-3.32-7.37-4.64c-1.35-1.32-2.02-3.08-2.02-5.28
							c0-2.53,0.98-4.59,2.93-6.17c1.95-1.58,4.35-2.37,7.2-2.37c2.27,0,4.57,0.67,6.9,2.02c0.31,0.18,0.57,0.27,0.77,0.27
							c0.29,0,0.52-0.25,0.67-0.74c0.22-0.63,0.55-0.94,0.98-0.94c0.29,0,0.49,0.1,0.61,0.3c0.11,0.2,0.27,1.25,0.47,3.15
							c0.2,1.9,0.3,3.47,0.3,4.73c0,0.87-0.26,1.31-0.77,1.31c-0.54,0-1.09-0.63-1.65-1.88c-1.91-4.17-4.65-6.26-8.24-6.26
							c-1.3,0-2.36,0.33-3.16,0.98c-0.81,0.65-1.21,1.35-1.21,2.09c0,0.94,0.52,1.81,1.55,2.59c1.03,0.81,3.04,1.9,6.02,3.26
							c2.56,1.17,4.34,2.07,5.33,2.71c1,0.64,1.85,1.56,2.54,2.76C348.95,47.25,349.29,48.51,349.29,49.84z"/>
					</g>
				</g>
				<g>
					<g>
						<path class="st3" d="M367.36,30.22c1.37-0.07,3.47-0.1,6.29-0.1c1.28,0,2.33,0.11,3.16,0.34c-0.34,1.68-0.63,2.58-0.89,2.69
							c-0.26,0.11-3.11,0.33-8.56,0.64l-0.37,14.84c0,2.11,0.11,3.66,0.32,4.64c0.21,0.99,0.7,1.82,1.46,2.49
							c0.76,0.67,1.75,1.01,2.96,1.01c1.03,0,2.5-0.55,4.41-1.65c0.29-0.16,0.54-0.24,0.74-0.24c0.43,0,0.64,0.22,0.64,0.67
							c0,0.65-0.91,1.54-2.73,2.66c-1.82,1.12-3.95,1.68-6.39,1.68c-2.89,0-5.17-0.71-6.81-2.12c-1.65-1.41-2.47-4.4-2.47-8.95
							c0-5.03,0.09-10.04,0.27-15.04c-2.22,0-3.79-0.06-4.71-0.17c-0.92-0.11-1.38-0.44-1.38-0.98c0-0.45,0.53-0.81,1.58-1.08
							c2.09-0.47,3.95-1.32,5.6-2.56c1.65-1.23,3.06-3.2,4.22-5.89c0.47-1.1,0.79-1.77,0.96-2c0.17-0.24,0.41-0.35,0.72-0.35
							c0.65,0,0.98,0.54,0.98,1.62V30.22z"/>
					</g>
				</g>
				<g>
					<g>
						<path class="st3" d="M390.55,43.88c-0.02,0.65-0.03,1.12-0.03,1.41c0,3.19,0.78,5.88,2.34,8.09c1.56,2.21,3.66,3.31,6.31,3.31
							c2.71,0,5.38-1.18,8.01-3.53c0.54-0.47,0.92-0.71,1.14-0.71c0.58,0,0.88,0.31,0.88,0.94c0,0.49-0.67,1.38-2.02,2.66
							c-1.35,1.28-3,2.24-4.95,2.89c-1.95,0.65-3.97,0.98-6.06,0.98c-4.58,0-8.16-1.4-10.75-4.19c-2.59-2.79-3.89-6.08-3.89-9.88
							c0-4.55,1.49-8.37,4.46-11.46c2.97-3.08,6.68-4.63,11.12-4.63c4.17,0,7.35,1.4,9.54,4.21c2.19,2.8,3.28,5.47,3.28,8.01
							c0,0.81-0.21,1.29-0.64,1.45c-0.43,0.16-1.81,0.24-4.14,0.24L390.55,43.88z M390.75,41.42c3.32,0.05,5.24,0.07,5.75,0.07
							c2.53,0,4.09-0.18,4.66-0.54c0.57-0.36,0.86-1.09,0.86-2.19c0-1.84-0.53-3.47-1.58-4.88c-1.05-1.41-2.31-2.12-3.77-2.12
							C393.22,31.77,391.24,34.98,390.75,41.42z"/>
					</g>
				</g>
				<g>
					<g>
						<path class="st3" d="M424.91,36.44c1.12-2.27,2.41-3.96,3.87-5.08c1.46-1.12,3.08-1.68,4.88-1.68c1.7,0,3.07,0.49,4.09,1.48
							c1.02,0.99,1.53,2.22,1.53,3.7c0,1.17-0.36,2.16-1.09,2.98c-0.73,0.82-1.62,1.23-2.68,1.23c-0.79,0-1.44-0.2-1.95-0.61
							s-1.07-1.12-1.65-2.15c-0.81-1.48-1.51-2.22-2.12-2.22c-0.83,0-1.77,0.84-2.83,2.52c-1.05,1.68-1.58,4.94-1.58,9.78
							c0,6.12,0.21,9.52,0.62,10.2c0.41,0.68,1.33,1.02,2.74,1.02c1.23,0,1.85,0.34,1.85,1.01c0,0.63-0.61,0.94-1.82,0.94
							c-0.67,0-1.65-0.06-2.93-0.18c-1.17-0.1-2.27-0.15-3.3-0.15c-2.22,0-4.42,0.08-6.6,0.24c-0.92,0.07-1.46,0.1-1.62,0.1
							c-0.94,0-1.41-0.35-1.41-1.06c0-0.62,0.55-0.95,1.65-0.99c1.08-0.04,1.83-0.3,2.25-0.76c0.43-0.46,0.64-1.46,0.64-3.01
							l0.13-8.4c0-1.7-0.07-3.82-0.2-6.35s-0.26-4.04-0.37-4.52c-0.11-0.48-0.4-0.91-0.86-1.29c-0.46-0.38-1.08-0.61-1.87-0.67
							c-0.81-0.09-1.32-0.2-1.53-0.32c-0.21-0.12-0.32-0.38-0.32-0.76c0-0.61,0.56-0.92,1.68-0.94c2.06-0.02,5.57-0.29,10.53-0.81
							L424.91,36.44z"/>
					</g>
				</g>
				<g>
					<g>
						<path class="st3" d="M465.56,49.84c0,1.62-0.42,3.19-1.26,4.71c-0.84,1.53-2.11,2.79-3.8,3.79c-1.69,1-3.67,1.5-5.94,1.5
							c-2.83,0-5.22-0.58-7.17-1.75c-0.85-0.49-1.4-0.74-1.65-0.74c-0.29,0-0.52,0.19-0.67,0.56c-0.36,0.88-0.79,1.32-1.28,1.32
							c-0.29,0-0.5-0.11-0.62-0.34c-0.12-0.22-0.22-1.22-0.3-3c-0.08-1.78-0.12-3.89-0.12-6.32c0-0.94,0.27-1.41,0.81-1.41
							c0.54,0,1.11,0.7,1.72,2.09c2.15,5.05,5.09,7.57,8.82,7.57c1.3,0,2.41-0.34,3.31-1.01c0.91-0.67,1.36-1.65,1.36-2.93
							c0-1.08-0.42-2-1.26-2.78c-0.84-0.77-2.45-1.74-4.83-2.91c-3.59-1.77-6.05-3.32-7.37-4.64c-1.35-1.32-2.02-3.08-2.02-5.28
							c0-2.53,0.98-4.59,2.93-6.17c1.95-1.58,4.35-2.37,7.2-2.37c2.27,0,4.57,0.67,6.9,2.02c0.31,0.18,0.57,0.27,0.77,0.27
							c0.29,0,0.52-0.25,0.67-0.74c0.22-0.63,0.55-0.94,0.98-0.94c0.29,0,0.49,0.1,0.61,0.3c0.11,0.2,0.27,1.25,0.47,3.15
							c0.2,1.9,0.3,3.47,0.3,4.73c0,0.87-0.26,1.31-0.77,1.31c-0.54,0-1.09-0.63-1.65-1.88c-1.91-4.17-4.65-6.26-8.24-6.26
							c-1.3,0-2.36,0.33-3.16,0.98c-0.81,0.65-1.21,1.35-1.21,2.09c0,0.94,0.52,1.81,1.55,2.59c1.03,0.81,3.04,1.9,6.02,3.26
							c2.56,1.17,4.34,2.07,5.33,2.71c1,0.64,1.85,1.56,2.54,2.76C465.21,47.25,465.56,48.51,465.56,49.84z"/>
					</g>
				</g>
			</g>
			<g>
				<g>
					<path class="st3" d="M119.9,16.93c-0.32,0-0.95,0.04-1.88,0.11c-1.66,0.15-3.62,0.23-5.87,0.23l-5.77-0.17
						c-1.02,0-1.54,0.31-1.54,0.92c0,0.57,0.57,0.89,1.71,0.96c0.77,0.02,1.56,0.33,2.36,0.92c0.8,0.59,1.19,1.53,1.19,2.8
						c0,0.82-0.12,1.69-0.38,2.6c-0.25,0.91-1.42,4.26-3.51,10.04c-2.09,5.78-3.79,10.29-5.11,13.52
						c-6.39-14.73-9.58-23.48-9.58-26.26c0-0.98,0.35-1.83,1.06-2.56c0.71-0.73,1.8-1.09,3.28-1.09c0.84,0,1.26-0.31,1.26-0.92
						c0-0.48-0.15-0.75-0.44-0.82c-0.3-0.07-1.6-0.1-3.93-0.1l-6.66,0.17l-8.16-0.17c-1.73,0-2.74,0.06-3.02,0.17
						c-0.29,0.11-0.43,0.35-0.43,0.72c0,0.55,0.37,0.88,1.12,0.99c1.38,0.21,2.38,0.55,2.99,1.02c0.61,0.48,1.43,1.97,2.46,4.47
						c1.03,2.5,1.78,4.26,2.26,5.25l-7.35,19.88l-5.81-12.6c-1.65-3.66-2.92-6.48-3.81-8.51h-10.4c1.8,3.58,4.22,8.74,7.28,15.51
						l8.56,19.09h2.5l5.03-14.04l5.65-15.44c2.16,5.09,4.11,9.93,5.85,14.52c3.32,8.9,5.24,13.89,5.77,14.96h2.42l5.8-15.64
						l5.76-15.37c1.86-4.89,3.29-8.08,4.28-9.56c0.99-1.48,1.84-2.43,2.55-2.87c0.71-0.44,1.53-0.7,2.46-0.79
						c0.93-0.09,1.4-0.42,1.4-0.99C121.23,17.25,120.78,16.93,119.9,16.93z"/>
				</g>
				<g>
					<g>
						<path class="st3" d="M52.17,38.61c4.64,0.99,8.12,2.5,10.43,4.52c2.31,2.03,3.47,4.59,3.47,7.69c0,2.58-0.85,4.9-2.54,6.96
							c-1.69,2.06-3.77,3.45-6.23,4.15C54.84,62.65,51.27,63,46.58,63c-1.14,0-2.94-0.06-5.38-0.18c-2.02-0.1-3.6-0.15-4.74-0.15
							c-1.53,0-3.58,0.1-6.16,0.3c-1.05,0.09-1.79,0.13-2.22,0.13c-0.88,0-1.31-0.33-1.31-0.98c0-0.49,0.35-0.78,1.04-0.87
							c1.41-0.18,2.44-0.42,3.08-0.72c0.64-0.3,1.15-0.81,1.55-1.53s0.59-1.88,0.59-3.5l0.27-15.7c0-4.89-0.06-8.79-0.17-11.72
							c-0.11-2.93-0.31-4.81-0.59-5.67c-0.28-0.85-0.67-1.45-1.18-1.78c-0.5-0.34-1.26-0.54-2.27-0.61c-0.9-0.04-1.48-0.15-1.73-0.3
							c-0.26-0.16-0.39-0.41-0.39-0.77c0-0.47,0.26-0.76,0.79-0.88c0.53-0.11,2.01-0.17,4.46-0.17c4.49,0,8.68-0.16,12.58-0.47
							c2.31-0.18,4.16-0.27,5.55-0.27c4.13,0,7.43,0.91,9.89,2.73c2.47,1.82,3.7,4.27,3.7,7.33C63.95,32.52,60.02,36.31,52.17,38.61
							z M42.92,38.1c7.72,0,11.58-3.32,11.58-9.96c0-2.93-0.68-5.11-2.05-6.55c-1.37-1.44-2.96-2.16-4.78-2.16
							c-1.3,0-2.88,0.31-4.74,0.94c-0.18,2.26-0.27,4.62-0.27,7.07C42.65,29.52,42.74,33.07,42.92,38.1z M42.92,40.73
							c-0.18,4.73-0.27,8.67-0.27,11.83c0,4.17,0.17,6.55,0.5,7.16c0.34,0.6,1.4,0.91,3.2,0.91c3.23,0,5.65-0.86,7.25-2.59
							c1.6-1.72,2.41-4.1,2.41-7.12c0-3.02-0.83-5.5-2.49-7.44c-1.66-1.94-4.18-2.91-7.57-2.91C45.2,40.56,44.19,40.62,42.92,40.73z
							"/>
					</g>
				</g>
				<g>
					<path class="st3" d="M30.8,62.16c0,0.37-0.15,0.63-0.43,0.8c-0.03,0.01-0.04,0.01-0.07,0.01c-0.98,0.09-1.69,0.13-2.13,0.14
						c-0.01,0-0.01,0-0.02,0c-0.22-0.03-0.45-0.05-0.68-0.07c-1.74-0.18-3.53-0.27-5.36-0.27c-2.22,0-4.43,0.14-6.63,0.41
						c-0.76-1.19-1.34-2.45-1.74-3.8c-0.39-1.35-0.99-4.59-1.8-9.73c-0.6-3.79-1.44-6.34-2.51-7.65c-1.07-1.31-2.26-1.97-3.59-1.97
						c-1.44,0-3.11,0.85-4.99,2.51v-3.62c2.32-1.98,4.97-4.66,7.92-8.05c3.21-3.68,5.06-5.89,5.57-6.64
						c0.51-0.73,0.76-1.33,0.76-1.78c0-1.14-1.05-1.93-3.13-2.35c-0.9-0.18-1.35-0.55-1.35-1.11c0-0.67,0.42-1.01,1.28-1.01
						c0.29,0,0.67,0.03,1.14,0.07c1.73,0.25,4.21,0.37,7.44,0.37c0.83,0,2.14-0.06,3.94-0.18c1.59-0.1,2.7-0.15,3.31-0.16h0.12
						c0.96,0,1.44,0.34,1.44,1.01c0,0.43-0.25,0.73-0.77,0.91h-0.01c-0.17,0.06-0.37,0.1-0.6,0.13c-1.28,0.14-2.57,0.49-3.87,1.05
						c-1.3,0.57-2.86,1.59-4.68,3.05c-1.81,1.46-3.7,3.25-5.65,5.36l-6.62,7.3l2.26-0.07c2.58,0,4.74,0.54,6.47,1.65
						c1.73,1.1,2.96,2.43,3.69,4c0.73,1.57,1.56,4.33,2.5,8.28c0.72,2.94,1.3,4.99,1.78,6.16c0.47,1.17,1.2,2.17,2.2,3.01
						c0.73,0.62,1.53,1.04,2.37,1.25c0.29,0.07,0.6,0.12,0.91,0.15C30.29,61.41,30.8,61.69,30.8,62.16z"/>
				</g>
				<g>
					<g>
						<path class="st3" d="M62.6,43.14c-2.32-2.03-5.79-3.54-10.43-4.53c7.85-2.31,11.78-6.09,11.78-11.37
							c0-3.07-1.24-5.51-3.71-7.34c-2.46-1.82-5.76-2.73-9.89-2.73c-1.39,0-3.24,0.09-5.55,0.27c-3.91,0.31-8.1,0.47-12.58,0.47
							c-2.45,0-3.94,0.06-4.46,0.17h-0.01c-0.53,0.11-0.79,0.41-0.79,0.87c0,0.36,0.13,0.62,0.39,0.78c0.2,0.12,0.6,0.21,1.18,0.27
							h0.01c0.16,0.01,0.35,0.03,0.54,0.03c1.01,0.07,1.77,0.27,2.27,0.6c0.51,0.34,0.9,0.92,1.18,1.78
							c0.28,0.85,0.48,2.74,0.59,5.67c0.11,2.92,0.16,6.83,0.16,11.71l-0.27,15.71c0,1.61-0.2,2.77-0.59,3.49
							c-0.4,0.72-0.91,1.23-1.55,1.53c-0.55,0.26-1.39,0.48-2.51,0.65c-0.18,0.03-0.37,0.05-0.57,0.08
							c-0.69,0.09-1.04,0.38-1.04,0.87c0,0.48,0.23,0.78,0.71,0.91c0.17,0.04,0.37,0.07,0.6,0.07h0.08c0.01,0,0.01,0,0.02,0
							c0.43-0.01,1.15-0.05,2.13-0.14c0.03,0,0.04,0,0.07-0.01c2.54-0.19,4.58-0.29,6.08-0.29c1.15,0,2.73,0.05,4.74,0.16
							c2.45,0.12,4.24,0.18,5.38,0.18c4.69,0,8.26-0.35,10.72-1.05c2.46-0.71,4.54-2.09,6.23-4.16c1.69-2.07,2.54-4.38,2.54-6.97
							C66.07,47.73,64.91,45.16,62.6,43.14z M42.92,20.36c1.86-0.62,3.44-0.93,4.74-0.93c1.81,0,3.4,0.72,4.78,2.16
							c1.37,1.44,2.05,3.63,2.05,6.55c0,6.65-3.85,9.96-11.57,9.96c-0.18-5.03-0.27-8.58-0.27-10.66
							C42.65,24.98,42.74,22.63,42.92,20.36z M53.6,58.03c-1.6,1.72-4.02,2.58-7.25,2.58c-1.8,0-2.86-0.3-3.2-0.91
							c-0.34-0.6-0.5-2.99-0.5-7.16c0-3.16,0.09-7.1,0.27-11.83c1.28-0.1,2.29-0.16,3.02-0.16c3.39,0,5.91,0.97,7.57,2.9
							c1.66,1.94,2.5,4.42,2.5,7.44C56.01,53.93,55.21,56.3,53.6,58.03z"/>
					</g>
				</g>
			</g>
			<g>
				<g>
					<g>
						<path class="st3" d="M156.17,69.04c-0.48,0-0.86-0.39-0.86-0.86V11.93c0-0.48,0.39-0.86,0.86-0.86s0.86,0.39,0.86,0.86v56.24
							C157.03,68.65,156.64,69.04,156.17,69.04z"/>
					</g>
				</g>
				<g>
					<g>
						<path class="st3" d="M146,80.1c-0.48,0-0.86-0.39-0.86-0.86V0.86c0-0.48,0.39-0.86,0.86-0.86c0.48,0,0.86,0.39,0.86,0.86
							v78.38C146.87,79.72,146.48,80.1,146,80.1z"/>
					</g>
				</g>
				<g>
					<g>
						<path class="st3" d="M135.84,69.04c-0.48,0-0.86-0.39-0.86-0.86V11.93c0-0.48,0.39-0.86,0.86-0.86c0.48,0,0.86,0.39,0.86,0.86
							v56.24C136.7,68.65,136.32,69.04,135.84,69.04z"/>
					</g>
				</g>
			</g>
			<g>
				<text transform="matrix(1 0 0 1 0.8634 123.9628)" class="st3 st4 st5 st6">London - Islamabad</text>
			</g>
			<g>
				<g>
					<path class="st3" d="M465.56,90.47H0.86C0.39,90.47,0,90.08,0,89.6c0-0.48,0.39-0.86,0.86-0.86h464.69
						c0.48,0,0.86,0.39,0.86,0.86C466.42,90.08,466.03,90.47,465.56,90.47z"/>
				</g>
			</g>
		</g>
	</g>
</g>
</svg>
